<?xml version="1.0" encoding="UTF-8"?>
<svg version="1.1" xmlns="http://www.w3.org/2000/svg" width="512" height="512">
<path d="M0 0 C1.50170194 -0.0053416 3.00339853 -0.01241645 4.50508517 -0.02104706 C8.58254459 -0.03948818 12.65963624 -0.03343432 16.73710978 -0.02289402 C21.1537606 -0.01584862 25.57033985 -0.0319402 29.98696899 -0.04489136 C38.62061677 -0.06644867 47.25413231 -0.06642565 55.88779811 -0.05826581 C62.91100762 -0.05194589 69.93417879 -0.05312105 76.95738792 -0.05953789 C78.4612548 -0.06089037 78.4612548 -0.06089037 79.99550283 -0.06227018 C82.0327574 -0.06412153 84.07001196 -0.06598409 86.10726651 -0.06785773 C105.17889035 -0.08440774 124.25044005 -0.07574123 143.32205942 -0.05887216 C160.73556024 -0.04418144 178.14888841 -0.05879976 195.562367 -0.08764232 C213.48159071 -0.11709945 231.40073491 -0.12798998 249.31998175 -0.11846012 C251.35033173 -0.11743766 253.38068172 -0.11644305 255.41103172 -0.11547661 C256.40977453 -0.11500022 257.40851733 -0.11452383 258.43752507 -0.114033 C265.44297787 -0.111877 272.44835469 -0.12162952 279.45379066 -0.13624763 C288.004744 -0.1538432 296.55547749 -0.15355077 305.10642246 -0.13089598 C309.46132008 -0.11981839 313.81583143 -0.11644224 318.17071152 -0.13519669 C359.05102849 -0.29841851 359.05102849 -0.29841851 376.44743347 9.8271637 C377.140224 10.21251282 377.83301453 10.59786194 378.54679871 10.99488831 C384.30295934 14.27979653 389.49192218 18.03539968 394.38493347 22.5146637 C395.06555847 23.11536682 395.74618347 23.71606995 396.44743347 24.3349762 C412.09561295 38.94401876 422.13508666 60.73722179 422.89109135 82.11507893 C422.91402226 84.78868882 422.91653378 87.45664191 422.89959717 90.12973022 C422.90493877 91.63143217 422.91201362 93.13312875 422.92064422 94.63481539 C422.93908535 98.71227481 422.93303149 102.78936646 422.92249119 106.86684 C422.91544579 111.28349083 422.93153737 115.70007008 422.94448853 120.11669922 C422.96604583 128.75034699 422.96602282 137.38386253 422.95786298 146.01752833 C422.95154305 153.04073784 422.95271822 160.06390902 422.95913506 167.08711815 C422.96003671 168.08969607 422.96093837 169.09227398 422.96186734 170.12523305 C422.9637187 172.16248762 422.96558126 174.19974218 422.9674549 176.23699673 C422.98400491 195.30862057 422.9753384 214.38017028 422.95846932 233.45178964 C422.94377861 250.86529046 422.95839692 268.27861863 422.98723949 285.69209722 C423.01669662 303.61132093 423.02758715 321.53046514 423.01805729 339.44971198 C423.01703483 341.48006195 423.01604022 343.51041194 423.01507378 345.54076195 C423.01459739 346.53950475 423.014121 347.53824755 423.01363017 348.56725529 C423.01147417 355.57270809 423.02122668 362.57808492 423.0358448 369.58352089 C423.05344037 378.13447422 423.05314794 386.68520771 423.03049315 395.23615269 C423.01941556 399.5910503 423.01603941 403.94556165 423.03479385 408.30044174 C423.19788144 449.14492041 423.19788144 449.14492041 413.13493347 466.5146637 C412.75288757 467.204151 412.37084167 467.89363831 411.97721863 468.60401917 C408.42666325 474.82075846 404.23998278 480.24449865 399.38493347 485.5146637 C398.83579285 486.1437262 398.28665222 486.7727887 397.72087097 487.4209137 C384.3745837 501.88487035 363.95919455 511.00193187 344.54178083 512.88795006 C340.61484584 513.02682185 336.69819827 513.05421718 332.76986694 513.02932739 C331.268165 513.03466899 329.76646842 513.04174385 328.26478177 513.05037445 C324.18732236 513.06881557 320.11023071 513.06276172 316.03275716 513.05222142 C311.61610634 513.04517601 307.19952709 513.06126759 302.78289795 513.07421875 C294.14925018 513.09577606 285.51573464 513.09575304 276.88206884 513.08759321 C269.85885933 513.08127328 262.83568815 513.08244845 255.81247902 513.08886528 C254.30861214 513.09021776 254.30861214 513.09021776 252.77436412 513.09159757 C250.73710955 513.09344892 248.69985499 513.09531149 246.66260044 513.09718513 C227.59097659 513.11373513 208.51942689 513.10506862 189.44780753 513.08819955 C172.03430671 513.07350883 154.62097853 513.08812715 137.20749994 513.11696971 C119.28827624 513.14642684 101.36913203 513.15731737 83.44988519 513.14778751 C81.41953521 513.14676505 79.38918522 513.14577044 77.35883522 513.144804 C76.36009242 513.14432761 75.36134961 513.14385122 74.33234188 513.14336039 C67.32688908 513.1412044 60.32151225 513.15095691 53.31607628 513.16557503 C44.76512295 513.18317059 36.21438946 513.18287816 27.66344448 513.16022337 C23.30854687 513.14914579 18.95403552 513.14576963 14.59915543 513.16452408 C-26.24698193 513.32761829 -26.24698193 513.32761829 -43.61506653 503.2646637 C-44.30527893 502.8818927 -44.99549133 502.4991217 -45.70661926 502.10475159 C-51.90469315 498.56268509 -57.36675298 494.3525434 -62.61506653 489.5146637 C-63.31760559 488.90364807 -64.02014465 488.29263245 -64.74397278 487.6631012 C-79.06019926 474.49553476 -88.14184636 453.82093927 -89.98412621 434.68025434 C-90.12719443 430.75025527 -90.15463999 426.8310818 -90.12973022 422.89959717 C-90.13507182 421.39789522 -90.14214668 419.89619864 -90.15077728 418.394512 C-90.16921841 414.31705258 -90.16316455 410.23996093 -90.15262425 406.16248739 C-90.14557885 401.74583657 -90.16167042 397.32925732 -90.17462158 392.91262817 C-90.19617889 384.2789804 -90.19615587 375.64546486 -90.18799604 367.01179906 C-90.18167611 359.98858955 -90.18285128 352.96541837 -90.18926811 345.94220924 C-90.19016977 344.93963133 -90.19107142 343.93705341 -90.1920004 342.90409434 C-90.19385176 340.86683977 -90.19571432 338.82958521 -90.19758796 336.79233066 C-90.21413796 317.72070682 -90.20547146 298.64915712 -90.18860238 279.57753775 C-90.17391167 262.16403693 -90.18852998 244.75070876 -90.21737254 227.33723017 C-90.24682968 209.41800646 -90.25772021 191.49886226 -90.24819034 173.57961541 C-90.24716789 171.54926544 -90.24617327 169.51891545 -90.24520683 167.48856544 C-90.24473044 166.48982264 -90.24425405 165.49107984 -90.24376323 164.4620721 C-90.24160723 157.4566193 -90.25135974 150.45124248 -90.26597786 143.4458065 C-90.28357342 134.89485317 -90.283281 126.34411968 -90.2606262 117.79317471 C-90.24954862 113.43827709 -90.24617247 109.08376574 -90.26492691 104.72888565 C-90.42815526 63.84693638 -90.42815526 63.84693638 -80.30256653 46.4521637 C-79.91649231 45.75864807 -79.53041809 45.06513245 -79.13264465 44.3506012 C-75.84439243 38.59212349 -72.0990474 33.40865838 -67.61506653 28.5146637 C-66.9524884 27.76056213 -66.28991028 27.00646057 -65.60725403 26.22950745 C-48.69733228 8.04042187 -24.33334234 -0.15417533 0 0 Z " fill="#74C1B2" transform="translate(89.61506652832031,-0.5146636962890625)"/>
<path d="M0 0 C0.68964844 -0.01611328 1.37929688 -0.03222656 2.08984375 -0.04882812 C6.55484532 -0.05309677 9.30648812 0.62631249 12.875 3.3125 C15.47621187 5.91371187 15.26274693 7.18298411 15.375 10.8125 C14.99819086 25.25114098 1.66008664 35.68643612 -8.0234375 45.1796875 C-23.0750404 59.34849844 -42.45845641 71.97539646 -63.6875 72.625 C-67.9615533 72.90842529 -68.76620683 72.98424242 -72.0625 76 C-73.1807891 77.98502347 -73.1807891 77.98502347 -74.125 80.3125 C-74.73021484 81.68341797 -74.73021484 81.68341797 -75.34765625 83.08203125 C-83.4426448 103.55467814 -85.34138584 125.57817302 -87.125 147.3125 C-86.40590454 147.42887817 -85.68680908 147.54525635 -84.94592285 147.66516113 C-82.0084966 148.33923493 -79.68776065 149.33415931 -76.99023438 150.66992188 C-75.99149292 151.16133667 -74.99275146 151.65275146 -73.96374512 152.15905762 C-72.89289673 152.6943811 -71.82204834 153.22970459 -70.71875 153.78125 C-69.60246216 154.33558716 -68.48617432 154.88992432 -67.33605957 155.46105957 C-64.97080339 156.63828452 -62.60702518 157.81806562 -60.24511719 159.00195312 C-56.67298697 160.7915097 -53.09019051 162.55917144 -49.5078125 164.328125 C-38.17203393 169.96653496 -27.13456476 175.50025949 -17.125 183.3125 C-16.36687012 183.89346436 -15.60874023 184.47442871 -14.82763672 185.07299805 C-1.13437986 195.86382214 7.53474423 212.26206512 9.875 229.3125 C11.68817187 251.27202601 0.54552588 270.99776258 -13.125 287.3125 C-30.10912174 307.30209068 -51.15227026 320.97386775 -74.125 333.3125 C-74.88071289 333.72048828 -75.63642578 334.12847656 -76.41503906 334.54882812 C-78.75305127 335.80871953 -81.09417195 337.06252584 -83.4375 338.3125 C-84.16155029 338.69889648 -84.88560059 339.08529297 -85.6315918 339.48339844 C-88.43627824 340.96395667 -91.11052917 342.30767639 -94.125 343.3125 C-94.125 354.8625 -94.125 366.4125 -94.125 378.3125 C-96.105 378.3125 -98.085 378.3125 -100.125 378.3125 C-100.125 367.4225 -100.125 356.5325 -100.125 345.3125 C-101.445 345.9725 -102.765 346.6325 -104.125 347.3125 C-108.22627346 348.43704272 -111.89511778 348.86559792 -116.125 348.3125 C-118.94316862 346.46182864 -121.04207329 344.33026666 -123.39453125 341.91796875 C-138.31107182 327.68430271 -164.76521777 317.33039187 -185.125 317.0625 C-186.300625 317.03671875 -187.47625 317.0109375 -188.6875 316.984375 C-193.32527319 317.42707153 -196.71338735 318.60623034 -199.734375 322.2578125 C-202.51645896 327.57426061 -204.09152663 332.39351613 -205.125 338.3125 C-207 338.9375 -207 338.9375 -209.125 339.3125 C-211.55368849 336.88381151 -211.50037649 336.0419496 -211.625 332.6875 C-211.47715153 326.62571278 -209.18497313 323.60832219 -205.125 319.3125 C-204.16207031 318.23355469 -204.16207031 318.23355469 -203.1796875 317.1328125 C-191.21815763 304.37678987 -173.77326723 292.99277927 -155.9609375 292.03125 C-135.81688184 291.39991139 -118.3989794 297.29823942 -101.125 307.3125 C-100.9974867 300.51745808 -100.91035143 293.72272837 -100.8503418 286.92675781 C-100.82530683 284.61837229 -100.79126846 282.31006517 -100.74780273 280.00195312 C-100.68666627 276.67037535 -100.65867893 273.33985187 -100.63671875 270.0078125 C-100.61091232 268.98761017 -100.5851059 267.96740784 -100.55851746 266.91629028 C-100.55539303 258.80637196 -102.59842518 252.33565914 -108.00737 246.16506958 C-113.93628457 240.28562068 -120.95135359 238.33932247 -129.125 237.75 C-134.99459013 237.93545308 -139.6968021 240.56681333 -144.125 244.3125 C-144.65222656 245.20582031 -145.17945313 246.09914063 -145.72265625 247.01953125 C-146.18542969 247.77621094 -146.64820313 248.53289062 -147.125 249.3125 C-148.115 249.3125 -149.105 249.3125 -150.125 249.3125 C-150.44206758 244.53801632 -149.7088092 241.83909532 -147.30859375 237.72265625 C-146.70853516 236.69076172 -146.10847656 235.65886719 -145.49023438 234.59570312 C-144.85408203 233.53287109 -144.21792969 232.47003906 -143.5625 231.375 C-142.95341797 230.31603516 -142.34433594 229.25707031 -141.71679688 228.16601562 C-136.82742731 219.87219614 -130.9744454 210.93270502 -121.125 208.3125 C-113.94494618 207.73078268 -107.25438125 208.29401696 -100.125 209.3125 C-100.62 198.9175 -100.62 198.9175 -101.125 188.3125 C-109.05506816 184.27666174 -116.92893305 180.33433922 -125.125 176.875 C-149.16963234 166.58278915 -166.86626957 154.22759635 -178.125 130.3125 C-178.51816406 129.54679688 -178.91132813 128.78109375 -179.31640625 127.9921875 C-181.8339253 122.76255856 -181.65676164 115.99395334 -181.125 110.3125 C-179.8125 107.25 -179.8125 107.25 -178.125 104.3125 C-177.68721491 102.94407743 -177.27263912 101.56812277 -176.875 100.1875 C-169.85104156 78.60874109 -149.46097597 60.88489909 -132.125 47.3125 C-130.92309739 46.32487171 -129.72407667 45.33372997 -128.52734375 44.33984375 C-93.49283067 15.3125 -93.49283067 15.3125 -84.125 15.3125 C-83.815625 16.3025 -83.50625 17.2925 -83.1875 18.3125 C-79.7764113 26.20263508 -71.494442 30.96897848 -64.484375 35.37890625 C-61.50376195 36.55832102 -60.1729891 36.22551599 -57.125 35.3125 C-55.13237887 33.81887263 -55.13237887 33.81887263 -53.375 31.84765625 C-52.69074951 31.13456299 -52.00649902 30.42146973 -51.30151367 29.68676758 C-50.58326416 28.92388428 -49.86501465 28.16100098 -49.125 27.375 C-35.68161361 13.54805245 -20.39001038 -0.09636111 0 0 Z " fill="#FDFEFE" transform="translate(354.125,66.6875)"/>
<path d="M0 0 C23.81096182 7.79975982 53.11292554 23.35207584 64.875 46.375 C70.35738362 57.81176053 69.71104468 74.38519382 65.97265625 86.3828125 C65.65167969 87.24648438 65.33070313 88.11015625 65 89 C64.64808594 89.98742187 64.29617188 90.97484375 63.93359375 91.9921875 C57.80492768 107.89031136 47.55578687 122.02331862 31.90625 129.47265625 C28.95802231 130.7241935 26.00877249 131.9025379 23 133 C21.49179687 133.56267578 21.49179687 133.56267578 19.953125 134.13671875 C17.01329697 134.99611292 15.02762605 135.41152199 12 135 C9.6484375 133.609375 9.6484375 133.609375 7.375 131.75 C6.61960937 131.14671875 5.86421875 130.5434375 5.0859375 129.921875 C2.29853556 127.35370692 0.21565172 125.41886048 -0.36914349 121.57125473 C-0.36637811 120.66052326 -0.36361273 119.74979179 -0.36076355 118.8114624 C-0.36488754 117.76260864 -0.36901154 116.71375488 -0.3732605 115.63311768 C-0.36247467 114.4880072 -0.35168884 113.34289673 -0.34057617 112.16308594 C-0.34101425 110.95305908 -0.34145233 109.74303223 -0.34190369 108.49633789 C-0.34017235 105.18241061 -0.32513249 101.86904471 -0.30418181 98.55521679 C-0.2854216 95.09055932 -0.2836651 91.62589428 -0.28010559 88.16119385 C-0.27078317 81.60221785 -0.24616682 75.04339196 -0.21605712 68.48448205 C-0.18251917 61.01659611 -0.16602864 53.54870299 -0.15097082 46.08076048 C-0.11961736 30.72042007 -0.06685314 15.3602294 0 0 Z " fill="#75C1B2" transform="translate(260,257)"/>
<path d="M0 0 C0.52207031 0.35191406 1.04414063 0.70382813 1.58203125 1.06640625 C4.04830902 2.72066962 6.52408344 4.36020082 9 6 C9.85464844 6.57621094 10.70929688 7.15242188 11.58984375 7.74609375 C22.04214741 14.63755387 33.05176081 19.34017899 45 23 C44.46289391 26.77601854 43.72757129 30.01489845 42.1875 33.5 C34.12475139 53.19282844 31.28525511 75.08654672 28 96 C7.24729544 88.96284619 -13.32749761 79.09245051 -24.0859375 58.96875 C-27.6216182 50.53501621 -27.79736165 39.37317971 -24.62890625 30.80078125 C-20.33639768 20.93285049 -13.61702598 13.43744973 -6 6 C-4.87631554 4.87889428 -3.75389251 3.75652261 -2.6328125 2.6328125 C-1.76398438 1.76398438 -0.89515625 0.89515625 0 0 Z " fill="#74C1B2" transform="translate(232,115)"/>
<path d="M0 0 C2.23996591 1.4535372 3.72537773 2.77106796 4.92578125 5.171875 C5.52293234 11.14338587 4.38982331 15.36343134 0.92578125 20.171875 C-7.86749127 28.98583757 -19.46965365 32.28794628 -31.54296875 32.35742188 C-32.58453125 32.35806641 -33.62609375 32.35871094 -34.69921875 32.359375 C-35.74851562 32.37162109 -36.7978125 32.38386719 -37.87890625 32.39648438 C-39.38710938 32.39938477 -39.38710938 32.39938477 -40.92578125 32.40234375 C-41.84182129 32.40645264 -42.75786133 32.41056152 -43.70166016 32.41479492 C-46.07421875 32.171875 -46.07421875 32.171875 -49.07421875 30.171875 C-48.25034789 24.1988113 -45.11252661 21.40791545 -41.07421875 17.171875 C-40.40003906 16.42292969 -39.72585938 15.67398438 -39.03125 14.90234375 C-29.81877489 5.05221098 -14.14890049 -5.64890189 0 0 Z " fill="#76C1B3" transform="translate(353.07421875,76.828125)"/>
</svg>
